<svg xmlns="http://www.w3.org/2000/svg" style="vertical-align:baseline;position:relative;top:0.2em" fill="currentColor" viewBox="0 0 20 20" preserveAspectRatio="xMidYMid meet" focusable="true" width="16px" height="16px"><path d="M 0 2 c 0 0.2 0.1 0.3 0.2 0.4 L 9 11.2 c 0.2 0.2 0.3 0.3 0.4 0.3 c 0.1 0 0.3 -0.1 0.5 -0.3 l 8.9 -8.8 C 18.9 2.3 19 2.2 19 2 c 0 -0.2 -0.1 -0.3 -0.2 -0.4 l -1 -0.9 c -0.1 -0.1 -0.3 -0.2 -0.4 -0.2 S 17.1 0.6 17 0.7 L 9.5 8.1 L 2 0.7 C 1.9 0.6 1.7 0.5 1.6 0.5 c -0.1 0 -0.3 0.1 -0.5 0.2 L 0.2 1.6 C 0.1 1.7 0 1.9 0 2"/></svg>